<svg width="458" height="106" viewBox="0 0 458 106" fill="none" xmlns="http://www.w3.org/2000/svg">
<line x1="40" y1="49.5" x2="425" y2="49.5" stroke="black"/>
<circle cx="168" cy="50" r="5" fill="#F761C4"/>
<circle cx="295" cy="50" r="5" fill="#7BAFD4"/>
<circle cx="425" cy="50" r="5" fill="#3DF4D1"/>
<circle cx="41" cy="50" r="5" fill="#3DF4D1"/>
<path d="M134.438 102V88.9091H139.104C140.123 88.9091 140.967 89.0945 141.636 89.4652C142.305 89.8359 142.805 90.343 143.138 90.9865C143.47 91.6257 143.636 92.3459 143.636 93.147C143.636 93.9524 143.468 94.6768 143.131 95.3203C142.799 95.9595 142.296 96.4666 141.623 96.8416C140.954 97.2124 140.112 97.3977 139.098 97.3977H135.889V95.723H138.919C139.563 95.723 140.085 95.6122 140.485 95.3906C140.886 95.1648 141.18 94.858 141.367 94.4702C141.555 94.0824 141.648 93.6413 141.648 93.147C141.648 92.6527 141.555 92.2138 141.367 91.8303C141.18 91.4467 140.884 91.1463 140.479 90.929C140.078 90.7116 139.55 90.603 138.893 90.603H136.413V102H134.438ZM145.952 102V88.9091H154.159V90.6094H147.927V94.598H153.731V96.2919H147.927V100.3H154.236V102H145.952ZM168.169 95.4545C168.169 96.8523 167.913 98.054 167.402 99.0597C166.891 100.061 166.19 100.832 165.299 101.374C164.413 101.911 163.405 102.179 162.276 102.179C161.142 102.179 160.13 101.911 159.239 101.374C158.353 100.832 157.654 100.059 157.143 99.0533C156.631 98.0476 156.376 96.848 156.376 95.4545C156.376 94.0568 156.631 92.8572 157.143 91.8558C157.654 90.8501 158.353 90.0788 159.239 89.5419C160.13 89.0007 161.142 88.7301 162.276 88.7301C163.405 88.7301 164.413 89.0007 165.299 89.5419C166.19 90.0788 166.891 90.8501 167.402 91.8558C167.913 92.8572 168.169 94.0568 168.169 95.4545ZM166.213 95.4545C166.213 94.3892 166.04 93.4922 165.695 92.7635C165.354 92.0305 164.886 91.4766 164.289 91.1016C163.697 90.7223 163.026 90.5327 162.276 90.5327C161.521 90.5327 160.848 90.7223 160.256 91.1016C159.663 91.4766 159.195 92.0305 158.849 92.7635C158.509 93.4922 158.338 94.3892 158.338 95.4545C158.338 96.5199 158.509 97.419 158.849 98.152C159.195 98.8807 159.663 99.4347 160.256 99.8139C160.848 100.189 161.521 100.376 162.276 100.376C163.026 100.376 163.697 100.189 164.289 99.8139C164.886 99.4347 165.354 98.8807 165.695 98.152C166.04 97.419 166.213 96.5199 166.213 95.4545ZM170.632 102V88.9091H175.298C176.316 88.9091 177.16 89.0945 177.829 89.4652C178.498 89.8359 178.999 90.343 179.331 90.9865C179.664 91.6257 179.83 92.3459 179.83 93.147C179.83 93.9524 179.661 94.6768 179.325 95.3203C178.992 95.9595 178.49 96.4666 177.816 96.8416C177.147 97.2124 176.306 97.3977 175.291 97.3977H172.083V95.723H175.112C175.756 95.723 176.278 95.6122 176.678 95.3906C177.079 95.1648 177.373 94.858 177.561 94.4702C177.748 94.0824 177.842 93.6413 177.842 93.147C177.842 92.6527 177.748 92.2138 177.561 91.8303C177.373 91.4467 177.077 91.1463 176.672 90.929C176.271 90.7116 175.743 90.603 175.087 90.603H172.607V102H170.632ZM182.145 102V88.9091H184.12V100.3H190.052V102H182.145ZM192.305 102V88.9091H200.513V90.6094H194.281V94.598H200.085V96.2919H194.281V100.3H200.589V102H192.305Z" fill="black"/>
<path d="M1.43821 4.90909H3.83523L8.00284 15.0852H8.15625L12.3239 4.90909H14.7209V18H12.8416V8.52699H12.7202L8.85938 17.9808H7.29972L3.43892 8.5206H3.31747V18H1.43821V4.90909ZM18.6983 18H16.6017L21.3127 4.90909H23.5946L28.3056 18H26.209L22.508 7.28693H22.4057L18.6983 18ZM19.0499 12.8736H25.851V14.5355H19.0499V12.8736ZM28.0036 6.60938V4.90909H38.1349V6.60938H34.0504V18H32.0817V6.60938H28.0036ZM40.3738 18V4.90909H48.5811V6.60938H42.3489V10.598H48.1529V12.2919H42.3489V16.2997H48.6578V18H40.3738ZM51.2195 18V4.90909H55.8857C56.8999 4.90909 57.7415 5.08381 58.4105 5.43324C59.0838 5.78267 59.5866 6.26633 59.919 6.88423C60.2514 7.49787 60.4176 8.20739 60.4176 9.01278C60.4176 9.81392 60.2493 10.5192 59.9126 11.1286C59.5803 11.7337 59.0774 12.2045 58.4041 12.5412C57.7351 12.8778 56.8935 13.0462 55.8793 13.0462H52.3445V11.3459H55.7003C56.3395 11.3459 56.8594 11.2543 57.2599 11.071C57.6648 10.8878 57.9609 10.6214 58.1484 10.272C58.3359 9.92258 58.4297 9.50284 58.4297 9.01278C58.4297 8.51847 58.3338 8.0902 58.142 7.72798C57.9545 7.36577 57.6584 7.08878 57.2536 6.89702C56.853 6.70099 56.3267 6.60298 55.6747 6.60298H53.1946V18H51.2195ZM57.6818 12.0938L60.9162 18H58.6662L55.4957 12.0938H57.6818ZM64.7962 4.90909V18H62.821V4.90909H64.7962ZM68.7784 18H66.6818L71.3928 4.90909H73.6747L78.3857 18H76.2891L72.5881 7.28693H72.4858L68.7784 18ZM69.13 12.8736H75.9311V14.5355H69.13V12.8736ZM80.2761 18V4.90909H82.2512V16.2997H88.1831V18H80.2761ZM97.5762 8.34801C97.508 7.7429 97.2267 7.27415 96.7324 6.94176C96.2381 6.60511 95.6159 6.43679 94.8659 6.43679C94.329 6.43679 93.8645 6.52202 93.4725 6.69247C93.0804 6.85866 92.7757 7.08878 92.5584 7.38281C92.3453 7.67258 92.2388 8.00284 92.2388 8.37358C92.2388 8.68466 92.3113 8.95312 92.4561 9.17898C92.6053 9.40483 92.7992 9.59446 93.0378 9.74787C93.2807 9.89702 93.5407 10.0227 93.8176 10.125C94.0946 10.223 94.361 10.304 94.6167 10.3679L95.8951 10.7003C96.3127 10.8026 96.7409 10.9411 97.1799 11.1158C97.6188 11.2905 98.0257 11.5206 98.4007 11.8061C98.7757 12.0916 99.0783 12.4453 99.3084 12.8672C99.5428 13.2891 99.66 13.794 99.66 14.3821C99.66 15.1236 99.4682 15.782 99.0847 16.3572C98.7054 16.9325 98.1536 17.3864 97.4292 17.7188C96.709 18.0511 95.8375 18.2173 94.8148 18.2173C93.8347 18.2173 92.9867 18.0618 92.2708 17.7507C91.5549 17.4396 90.9945 16.9986 90.5897 16.4276C90.1848 15.8523 89.9611 15.1705 89.9185 14.3821H91.9C91.9384 14.8551 92.0918 15.2493 92.3603 15.5646C92.633 15.8757 92.9803 16.108 93.4022 16.2614C93.8283 16.4105 94.2949 16.4851 94.802 16.4851C95.3603 16.4851 95.8567 16.3977 96.2914 16.223C96.7303 16.044 97.0755 15.7969 97.3269 15.4815C97.5783 15.1619 97.704 14.7891 97.704 14.3629C97.704 13.9751 97.5932 13.6577 97.3716 13.4105C97.1543 13.1634 96.8581 12.9588 96.4831 12.7969C96.1124 12.6349 95.6926 12.4922 95.2239 12.3686L93.677 11.9467C92.6287 11.6612 91.7978 11.2415 91.1841 10.6875C90.5748 10.1335 90.2701 9.40057 90.2701 8.48864C90.2701 7.73437 90.4746 7.07599 90.8837 6.51349C91.2928 5.95099 91.8468 5.5142 92.5456 5.20312C93.2445 4.88778 94.0328 4.73011 94.9107 4.73011C95.7971 4.73011 96.579 4.88565 97.2566 5.19673C97.9384 5.50781 98.4753 5.93608 98.8674 6.48153C99.2594 7.02273 99.464 7.64489 99.481 8.34801H97.5762Z" fill="black"/>
<path d="M387.438 102V88.9091H395.556V90.6094H389.413V94.598H394.974V96.2919H389.413V102H387.438ZM406.403 88.9091H408.385V97.5192C408.385 98.4354 408.17 99.2472 407.739 99.9545C407.309 100.658 406.704 101.212 405.924 101.616C405.144 102.017 404.23 102.217 403.182 102.217C402.138 102.217 401.226 102.017 400.446 101.616C399.666 101.212 399.061 100.658 398.631 99.9545C398.2 99.2472 397.985 98.4354 397.985 97.5192V88.9091H399.96V97.3594C399.96 97.9517 400.09 98.478 400.35 98.9382C400.614 99.3984 400.987 99.7607 401.469 100.025C401.95 100.285 402.521 100.415 403.182 100.415C403.847 100.415 404.42 100.285 404.901 100.025C405.387 99.7607 405.758 99.3984 406.013 98.9382C406.273 98.478 406.403 97.9517 406.403 97.3594V88.9091ZM410.611 90.6094V88.9091H420.742V90.6094H416.658V102H414.689V90.6094H410.611ZM431.4 88.9091H433.381V97.5192C433.381 98.4354 433.166 99.2472 432.735 99.9545C432.305 100.658 431.7 101.212 430.92 101.616C430.14 102.017 429.226 102.217 428.178 102.217C427.134 102.217 426.222 102.017 425.442 101.616C424.662 101.212 424.057 100.658 423.627 99.9545C423.196 99.2472 422.981 98.4354 422.981 97.5192V88.9091H424.956V97.3594C424.956 97.9517 425.086 98.478 425.346 98.9382C425.61 99.3984 425.983 99.7607 426.465 100.025C426.946 100.285 427.517 100.415 428.178 100.415C428.843 100.415 429.416 100.285 429.897 100.025C430.383 99.7607 430.754 99.3984 431.01 98.9382C431.27 98.478 431.4 97.9517 431.4 97.3594V88.9091ZM436.253 102V88.9091H440.919C441.933 88.9091 442.775 89.0838 443.444 89.4332C444.117 89.7827 444.62 90.2663 444.952 90.8842C445.285 91.4979 445.451 92.2074 445.451 93.0128C445.451 93.8139 445.282 94.5192 444.946 95.1286C444.613 95.7337 444.111 96.2045 443.437 96.5412C442.768 96.8778 441.927 97.0462 440.912 97.0462H437.378V95.3459H440.733C441.373 95.3459 441.893 95.2543 442.293 95.071C442.698 94.8878 442.994 94.6214 443.182 94.272C443.369 93.9226 443.463 93.5028 443.463 93.0128C443.463 92.5185 443.367 92.0902 443.175 91.728C442.988 91.3658 442.692 91.0888 442.287 90.897C441.886 90.701 441.36 90.603 440.708 90.603H438.228V102H436.253ZM442.715 96.0938L445.949 102H443.699L440.529 96.0938H442.715ZM447.854 102V88.9091H456.062V90.6094H449.829V94.598H455.633V96.2919H449.829V100.3H456.138V102H447.854Z" fill="black"/>
<path d="M248.793 6.60938V4.90909H258.924V6.60938H254.839V18H252.871V6.60938H248.793ZM261.163 18V4.90909H265.829C266.843 4.90909 267.685 5.08381 268.354 5.43324C269.027 5.78267 269.53 6.26633 269.862 6.88423C270.195 7.49787 270.361 8.20739 270.361 9.01278C270.361 9.81392 270.193 10.5192 269.856 11.1286C269.524 11.7337 269.021 12.2045 268.347 12.5412C267.678 12.8778 266.837 13.0462 265.823 13.0462H262.288V11.3459H265.644C266.283 11.3459 266.803 11.2543 267.203 11.071C267.608 10.8878 267.904 10.6214 268.092 10.272C268.279 9.92258 268.373 9.50284 268.373 9.01278C268.373 8.51847 268.277 8.0902 268.085 7.72798C267.898 7.36577 267.602 7.08878 267.197 6.89702C266.796 6.70099 266.27 6.60298 265.618 6.60298H263.138V18H261.163ZM267.625 12.0938L270.86 18H268.61L265.439 12.0938H267.625ZM273.87 18H271.774L276.485 4.90909H278.767L283.477 18H281.381L277.68 7.28693H277.578L273.87 18ZM274.222 12.8736H281.023V14.5355H274.222V12.8736ZM295.934 4.90909V18H294.119L287.464 8.39915H287.343V18H285.368V4.90909H287.196L293.857 14.5227H293.978V4.90909H295.934ZM305.955 8.34801C305.887 7.7429 305.606 7.27415 305.111 6.94176C304.617 6.60511 303.995 6.43679 303.245 6.43679C302.708 6.43679 302.243 6.52202 301.851 6.69247C301.459 6.85866 301.155 7.08878 300.937 7.38281C300.724 7.67258 300.618 8.00284 300.618 8.37358C300.618 8.68466 300.69 8.95312 300.835 9.17898C300.984 9.40483 301.178 9.59446 301.417 9.74787C301.66 9.89702 301.92 10.0227 302.197 10.125C302.474 10.223 302.74 10.304 302.996 10.3679L304.274 10.7003C304.692 10.8026 305.12 10.9411 305.559 11.1158C305.998 11.2905 306.405 11.5206 306.78 11.8061C307.155 12.0916 307.457 12.4453 307.687 12.8672C307.922 13.2891 308.039 13.794 308.039 14.3821C308.039 15.1236 307.847 15.782 307.464 16.3572C307.084 16.9325 306.532 17.3864 305.808 17.7188C305.088 18.0511 304.216 18.2173 303.194 18.2173C302.214 18.2173 301.366 18.0618 300.65 17.7507C299.934 17.4396 299.373 16.9986 298.969 16.4276C298.564 15.8523 298.34 15.1705 298.297 14.3821H300.279C300.317 14.8551 300.471 15.2493 300.739 15.5646C301.012 15.8757 301.359 16.108 301.781 16.2614C302.207 16.4105 302.674 16.4851 303.181 16.4851C303.739 16.4851 304.236 16.3977 304.67 16.223C305.109 16.044 305.454 15.7969 305.706 15.4815C305.957 15.1619 306.083 14.7891 306.083 14.3629C306.083 13.9751 305.972 13.6577 305.751 13.4105C305.533 13.1634 305.237 12.9588 304.862 12.7969C304.491 12.6349 304.072 12.4922 303.603 12.3686L302.056 11.9467C301.008 11.6612 300.177 11.2415 299.563 10.6875C298.954 10.1335 298.649 9.40057 298.649 8.48864C298.649 7.73437 298.854 7.07599 299.263 6.51349C299.672 5.95099 300.226 5.5142 300.925 5.20312C301.623 4.88778 302.412 4.73011 303.29 4.73011C304.176 4.73011 304.958 4.88565 305.635 5.19673C306.317 5.50781 306.854 5.93608 307.246 6.48153C307.638 7.02273 307.843 7.64489 307.86 8.34801H305.955ZM310.399 18V4.90909H315.065C316.084 4.90909 316.928 5.09446 317.597 5.4652C318.266 5.83594 318.766 6.34304 319.099 6.98651C319.431 7.62571 319.597 8.34588 319.597 9.14702C319.597 9.95241 319.429 10.6768 319.092 11.3203C318.76 11.9595 318.257 12.4666 317.584 12.8416C316.915 13.2124 316.073 13.3977 315.059 13.3977H311.85V11.723H314.88C315.523 11.723 316.045 11.6122 316.446 11.3906C316.847 11.1648 317.141 10.858 317.328 10.4702C317.516 10.0824 317.609 9.64133 317.609 9.14702C317.609 8.6527 317.516 8.21378 317.328 7.83026C317.141 7.44673 316.844 7.14631 316.44 6.92898C316.039 6.71165 315.511 6.60298 314.854 6.60298H312.374V18H310.399ZM333.284 11.4545C333.284 12.8523 333.029 14.054 332.517 15.0597C332.006 16.0611 331.305 16.8324 330.414 17.3736C329.528 17.9105 328.52 18.179 327.391 18.179C326.257 18.179 325.245 17.9105 324.355 17.3736C323.468 16.8324 322.769 16.0589 322.258 15.0533C321.747 14.0476 321.491 12.848 321.491 11.4545C321.491 10.0568 321.747 8.85724 322.258 7.85582C322.769 6.85014 323.468 6.07883 324.355 5.5419C325.245 5.00071 326.257 4.73011 327.391 4.73011C328.52 4.73011 329.528 5.00071 330.414 5.5419C331.305 6.07883 332.006 6.85014 332.517 7.85582C333.029 8.85724 333.284 10.0568 333.284 11.4545ZM331.328 11.4545C331.328 10.3892 331.156 9.49219 330.811 8.76349C330.47 8.03054 330.001 7.47656 329.404 7.10156C328.812 6.7223 328.141 6.53267 327.391 6.53267C326.637 6.53267 325.963 6.7223 325.371 7.10156C324.779 7.47656 324.31 8.03054 323.965 8.76349C323.624 9.49219 323.453 10.3892 323.453 11.4545C323.453 12.5199 323.624 13.419 323.965 14.152C324.31 14.8807 324.779 15.4347 325.371 15.8139C325.963 16.1889 326.637 16.3764 327.391 16.3764C328.141 16.3764 328.812 16.1889 329.404 15.8139C330.001 15.4347 330.47 14.8807 330.811 14.152C331.156 13.419 331.328 12.5199 331.328 11.4545ZM335.747 18V4.90909H340.413C341.427 4.90909 342.269 5.08381 342.938 5.43324C343.611 5.78267 344.114 6.26633 344.446 6.88423C344.779 7.49787 344.945 8.20739 344.945 9.01278C344.945 9.81392 344.777 10.5192 344.44 11.1286C344.108 11.7337 343.605 12.2045 342.931 12.5412C342.262 12.8778 341.421 13.0462 340.407 13.0462H336.872V11.3459H340.228C340.867 11.3459 341.387 11.2543 341.787 11.071C342.192 10.8878 342.488 10.6214 342.676 10.272C342.863 9.92258 342.957 9.50284 342.957 9.01278C342.957 8.51847 342.861 8.0902 342.669 7.72798C342.482 7.36577 342.186 7.08878 341.781 6.89702C341.38 6.70099 340.854 6.60298 340.202 6.60298H337.722V18H335.747ZM342.209 12.0938L345.444 18H343.194L340.023 12.0938H342.209ZM346.703 6.60938V4.90909H356.834V6.60938H352.75V18H350.781V6.60938H346.703Z" fill="black"/>
</svg>
